<svg width="32" height="32" viewBox="0 0 32 32" fill="none" xmlns="http://www.w3.org/2000/svg">
  <circle cx="16" cy="16" r="16" fill="#F3F7FE"/>
  <path d="M16 2.66667C17.4613 2.66667 18.8773 3.10713 20.0413 3.92942C21.2054 4.75172 22.0594 5.91011 22.4876 7.23528C22.9159 8.56045 22.8957 9.9851 22.4295 11.2988C21.9633 12.6125 21.0788 13.7536 19.8948 14.5546C20.9682 15.1125 21.9093 15.9123 22.6546 16.9002C23.4 17.8882 23.9002 19.0365 24.1213 20.2761C24.3424 21.5157 24.2775 22.7915 23.9222 24.0026C23.5668 25.2138 22.929 26.3324 22.0571 27.2586C21.1853 28.1849 20.1037 28.8894 18.889 29.3127C17.6742 29.736 16.3605 29.866 15.0693 29.6916C13.7781 29.5172 12.5474 29.0438 11.4886 28.3099C10.4298 27.576 9.57093 26.6055 8.99043 25.4866C8.41244 24.3678 8.13527 23.1306 8.18201 21.8851C8.22874 20.6396 8.5979 19.4279 9.26039 18.3525H5.33334C4.97971 18.3525 4.64057 18.2128 4.39053 17.9627C4.14048 17.7127 4 17.3735 4 17.02V9.33333C4 8.97971 4.14048 8.64057 4.39053 8.39052C4.64057 8.14048 4.97971 8 5.33334 8H9.33334V4C9.33334 3.64638 9.47381 3.30724 9.72386 3.05719C9.97391 2.80714 10.313 2.66667 10.6667 2.66667H16L16 2.66667ZM16 5.33333C13.1711 5.33333 10.4576 6.45625 8.45724 8.45754C6.45695 10.4588 5.33334 13.1714 5.33334 16V28C5.33334 28.3536 5.47381 28.6928 5.72386 28.9428C5.97391 29.1929 6.31305 29.3333 6.66667 29.3333H12.6667V26.6667H6.66667V16C6.66667 13.8855 7.50953 11.8577 9.00982 10.3574C10.5101 8.85713 12.5379 8.01429 14.6523 8.01429V5.33333H16Z" fill="#004CE6"/>
</svg> 