<svg width="201" height="157" viewBox="0 0 201 157" fill="none" xmlns="http://www.w3.org/2000/svg">
<g id="Containers">
<g id="Group 47353">
<path id="Bkg" d="M100.25 134.5C131.316 134.5 156.5 109.316 156.5 78.25C156.5 47.184 131.316 22 100.25 22C69.184 22 44 47.184 44 78.25C44 109.316 69.184 134.5 100.25 134.5Z" fill="url(#paint0_linear_23_6719)"/>
<g id="Mask group">
<mask id="mask0_23_6719" style="mask-type:alpha" maskUnits="userSpaceOnUse" x="44" y="22" width="113" height="113">
<path id="Ellipse 653" d="M100.375 134.5C131.441 134.5 156.625 109.316 156.625 78.25C156.625 47.184 131.441 22 100.375 22C69.309 22 44.125 47.184 44.125 78.25C44.125 109.316 69.309 134.5 100.375 134.5Z" fill="#E4E7EC"/>
</mask>
<g mask="url(#mask0_23_6719)">
<g id="Group 47350">
<path id="Subtraction 1" d="M134.125 134.5H66.625V61.75C69.8065 61.7464 72.8567 60.481 75.1063 58.2314C77.356 55.9817 78.6214 52.9315 78.625 49.75H122.125C122.122 51.326 122.431 52.8871 123.035 54.3428C123.639 55.7986 124.525 57.1201 125.643 58.231C126.754 59.3493 128.076 60.2362 129.532 60.8402C130.987 61.4443 132.549 61.7535 134.125 61.75V134.5Z" fill="white"/>
<path id="Ellipse 665" d="M100.375 98.5C110.316 98.5 118.375 90.4411 118.375 80.5C118.375 70.5589 110.316 62.5 100.375 62.5C90.4339 62.5 82.375 70.5589 82.375 80.5C82.375 90.4411 90.4339 98.5 100.375 98.5Z" fill="#2D72FF"/>
<g id="ic_add_48px">
<path id="Path 25936" d="M106.739 88.9854L100.375 82.6214L94.011 88.9854L91.8897 86.8641L98.2537 80.5001L91.8897 74.1362L94.011 72.0148L100.375 78.3788L106.739 72.0148L108.86 74.1362L102.496 80.5001L108.86 86.8641L106.739 88.9854Z" fill="white"/>
</g>
<path id="Rectangle 5617" d="M110.125 103H90.625C89.3824 103 88.375 104.007 88.375 105.25C88.375 106.493 89.3824 107.5 90.625 107.5H110.125C111.368 107.5 112.375 106.493 112.375 105.25C112.375 104.007 111.368 103 110.125 103Z" fill="#C0C9D6"/>
<path id="Rectangle 5618" d="M116.875 112H83.875C82.6324 112 81.625 113.007 81.625 114.25C81.625 115.493 82.6324 116.5 83.875 116.5H116.875C118.118 116.5 119.125 115.493 119.125 114.25C119.125 113.007 118.118 112 116.875 112Z" fill="#E4E7EC"/>
</g>
</g>
</g>
</g>
</g>
<defs>
<linearGradient id="paint0_linear_23_6719" x1="43.9788" y1="22" x2="151.013" y2="132.543" gradientUnits="userSpaceOnUse">
<stop stop-color="#F9FBFF"/>
<stop offset="1" stop-color="#E7EAEF"/>
</linearGradient>
</defs>
</svg>
