<svg width="158" height="156" viewBox="0 0 158 156" fill="none" xmlns="http://www.w3.org/2000/svg">
<g id="Group 47353">
<path id="Bkg" d="M78.9133 156C121.992 156 156.913 121.078 156.913 78C156.913 34.9218 121.992 0 78.9133 0C35.8351 0 0.91333 34.9218 0.91333 78C0.91333 121.078 35.8351 156 78.9133 156Z" fill="url(#paint0_linear_11_8110)"/>
<g id="Mask group">
<mask id="mask0_11_8110" style="mask-type:alpha" maskUnits="userSpaceOnUse" x="1" y="0" width="157" height="156">
<path id="Ellipse 653" d="M79.0865 156C122.165 156 157.087 121.078 157.087 78C157.087 34.9218 122.165 -3.05176e-05 79.0865 -3.05176e-05C36.0083 -3.05176e-05 1.08652 34.9218 1.08652 78C1.08652 121.078 36.0083 156 79.0865 156Z" fill="#E4E7EC"/>
</mask>
<g mask="url(#mask0_11_8110)">
<g id="Group 47350">
<path id="Subtraction 1" d="M125.887 156H32.2866V55.12C36.6983 55.115 40.9279 53.3603 44.0474 50.2408C47.1669 47.1213 48.9217 42.8917 48.9266 38.48H109.247C109.242 40.6654 109.671 42.8301 110.508 44.8487C111.346 46.8674 112.575 48.6999 114.125 50.2403C115.666 51.791 117.498 53.0208 119.517 53.8584C121.536 54.6961 123.701 55.1248 125.887 55.12V156Z" fill="white"/>
<path id="Ellipse 665" d="M79.0865 106.08C92.8716 106.08 104.047 94.905 104.047 81.12C104.047 67.3349 92.8716 56.16 79.0865 56.16C65.3015 56.16 54.1265 67.3349 54.1265 81.12C54.1265 94.905 65.3015 106.08 79.0865 106.08Z" fill="#2D72FF"/>
<g id="ic_add_48px">
<path id="Path 25936" d="M87.9112 92.8864L79.0865 84.0617L70.2618 92.8864L67.3203 89.9448L76.145 81.1202L67.3203 72.2955L70.2618 69.3539L79.0865 78.1786L87.9112 69.3539L90.8528 72.2955L82.0281 81.1202L90.8528 89.9448L87.9112 92.8864Z" fill="white"/>
</g>
<path id="Rectangle 5617" d="M92.6065 112.32H65.5665C63.8434 112.32 62.4465 113.717 62.4465 115.44C62.4465 117.163 63.8434 118.56 65.5665 118.56H92.6065C94.3297 118.56 95.7265 117.163 95.7265 115.44C95.7265 113.717 94.3297 112.32 92.6065 112.32Z" fill="#C0C9D6"/>
<path id="Rectangle 5618" d="M101.967 124.8H56.2065C54.4834 124.8 53.0865 126.197 53.0865 127.92C53.0865 129.643 54.4834 131.04 56.2065 131.04H101.967C103.69 131.04 105.087 129.643 105.087 127.92C105.087 126.197 103.69 124.8 101.967 124.8Z" fill="#E4E7EC"/>
</g>
</g>
</g>
</g>
<defs>
<linearGradient id="paint0_linear_11_8110" x1="0.883937" y1="1.80106e-06" x2="149.305" y2="153.286" gradientUnits="userSpaceOnUse">
<stop stop-color="#F9FBFF"/>
<stop offset="1" stop-color="#E7EAEF"/>
</linearGradient>
</defs>
</svg>
