<svg width="216" height="188" viewBox="0 0 216 188" fill="none" xmlns="http://www.w3.org/2000/svg">
<g clip-path="url(#clip0_4723_36065)">
<path d="M177.981 21.3008H35.453C28.8934 21.3008 23.5757 26.6934 23.5757 33.3454V177.881C23.5757 184.533 28.8934 189.926 35.453 189.926H177.981C184.541 189.926 189.859 184.533 189.859 177.881V33.3454C189.859 26.6934 184.541 21.3008 177.981 21.3008Z" fill="url(#paint0_linear_4723_36065)"/>
<path d="M11.6793 37.2241H169.765C172.612 37.2241 174.92 39.5318 174.92 42.3785V71.6536C174.92 74.5003 172.612 76.808 169.765 76.808H11.6793C8.83257 76.808 6.52488 74.5003 6.52488 71.6536V42.3785C6.52488 39.5318 8.83257 37.2241 11.6793 37.2241Z" fill="white" stroke="#EAF0FC" stroke-width="1.40132"/>
<path d="M47.9775 45.8906H19.1338C17.2957 45.8906 15.8057 47.3807 15.8057 49.2188C15.8057 51.0568 17.2957 52.5469 19.1338 52.5469H47.9775C49.8156 52.5469 51.3057 51.0568 51.3057 49.2188C51.3057 47.3807 49.8156 45.8906 47.9775 45.8906Z" fill="#2D72FF"/>
<path d="M67.9463 56.2461H19.1338C17.2957 56.2461 15.8057 57.7361 15.8057 59.5742C15.8057 61.4123 17.2957 62.9023 19.1338 62.9023H67.9463C69.7844 62.9023 71.2744 61.4123 71.2744 59.5742C71.2744 57.7361 69.7844 56.2461 67.9463 56.2461Z" fill="#2D72FF"/>
<path d="M44.4669 89.9194H202.553C205.399 89.9194 207.707 92.2271 207.707 95.0738V124.349C207.707 127.196 205.399 129.503 202.553 129.503H44.4669C41.6202 129.503 39.3125 127.196 39.3125 124.349V95.0738C39.3125 92.2271 41.6202 89.9194 44.4669 89.9194Z" fill="white" stroke="#EAF0FC" stroke-width="1.40132"/>
<path d="M80.1523 98.5859H51.3086C49.4705 98.5859 47.9805 100.076 47.9805 101.914C47.9805 103.752 49.4705 105.242 51.3086 105.242H80.1523C81.9904 105.242 83.4805 103.752 83.4805 101.914C83.4805 100.076 81.9904 98.5859 80.1523 98.5859Z" fill="#9BABC7"/>
<path d="M100.121 109.68H51.3086C49.4705 109.68 47.9805 111.17 47.9805 113.008C47.9805 114.846 49.4705 116.336 51.3086 116.336H100.121C101.959 116.336 103.449 114.846 103.449 113.008C103.449 111.17 101.959 109.68 100.121 109.68Z" fill="#E4E7EC"/>
<path d="M11.6793 141.447H169.765C172.612 141.447 174.92 143.754 174.92 146.601V175.876C174.92 178.723 172.612 181.031 169.765 181.031H11.6793C8.83257 181.031 6.52488 178.723 6.52488 175.876V146.601C6.52488 143.754 8.83257 141.447 11.6793 141.447Z" fill="white" stroke="#EAF0FC" stroke-width="1.40132"/>
<path d="M47.3657 150.113H18.522C16.6839 150.113 15.1938 151.603 15.1938 153.441C15.1938 155.279 16.6839 156.77 18.522 156.77H47.3657C49.2038 156.77 50.6938 155.279 50.6938 153.441C50.6938 151.603 49.2038 150.113 47.3657 150.113Z" fill="#9BABC7"/>
<path d="M67.3345 161.207H18.522C16.6839 161.207 15.1938 162.697 15.1938 164.535C15.1938 166.373 16.6839 167.863 18.522 167.863H67.3345C69.1725 167.863 70.6626 166.373 70.6626 164.535C70.6626 162.697 69.1725 161.207 67.3345 161.207Z" fill="#E4E7EC"/>
</g>
<defs>
<linearGradient id="paint0_linear_4723_36065" x1="-52.9995" y1="-40" x2="184.034" y2="184.749" gradientUnits="userSpaceOnUse">
<stop stop-color="#F9FBFF"/>
<stop offset="1" stop-color="#E8EEF9"/>
</linearGradient>
<clipPath id="clip0_4723_36065">
<rect width="215" height="187.606" fill="white" transform="translate(0.5)"/>
</clipPath>
</defs>
</svg>
