<svg width="28" height="29" viewBox="0 0 28 29" fill="none" xmlns="http://www.w3.org/2000/svg">
<path d="M20.5019 21.9748L23.8082 18.6685C24.0276 18.4491 24.2017 18.1887 24.3204 17.902C24.4392 17.6154 24.5003 17.3081 24.5003 16.9978C24.5003 16.6876 24.4392 16.3803 24.3204 16.0937C24.2017 15.807 24.0276 15.5466 23.8082 15.3272L15.505 7.02518M6.99999 11H6.98832M9.16883 7.50001H5.8625C5.23593 7.50001 4.63501 7.74891 4.19196 8.19197C3.74891 8.63502 3.5 9.23593 3.5 9.86251V13.1688C3.5 13.7953 3.7485 14.3962 4.19183 14.8395L11.3272 21.9748C11.5465 22.1943 11.807 22.3683 12.0937 22.4871C12.3803 22.6058 12.6876 22.6669 12.9978 22.6669C13.3081 22.6669 13.6154 22.6058 13.902 22.4871C14.1887 22.3683 14.4491 22.1943 14.6685 21.9748L17.9748 18.6685C18.1942 18.4491 18.3683 18.1887 18.4871 17.902C18.6058 17.6154 18.6669 17.3081 18.6669 16.9978C18.6669 16.6876 18.6058 16.3803 18.4871 16.0937C18.3683 15.807 18.1942 15.5466 17.9748 15.3272L10.8383 8.19184C10.3955 7.74909 9.79503 7.50025 9.16883 7.50001Z" stroke="#001742" stroke-width="1.75" stroke-linecap="round" stroke-linejoin="round"/>
</svg>
