<svg width="32" height="32" viewBox="0 0 32 32" fill="none" xmlns="http://www.w3.org/2000/svg">
  <circle cx="16" cy="16" r="16" fill="#004CE6"/>
  <path d="M16 16C17.4728 16 18.8912 15.4381 19.9497 14.3891C21.0082 13.34 21.5714 11.9333 21.5714 10.4762C21.5714 9.01903 21.0082 7.61236 19.9497 6.56328C18.8912 5.5142 17.4728 4.95238 16 4.95238C14.5272 4.95238 13.1088 5.5142 12.0503 6.56328C10.9918 7.61236 10.4286 9.01903 10.4286 10.4762C10.4286 11.9333 10.9918 13.34 12.0503 14.3891C13.1088 15.4381 14.5272 16 16 16ZM16 18.6667C13.1635 18.6667 10.4429 19.7976 8.44259 21.7979C6.44227 23.7982 5.31134 26.5188 5.31134 29.3553H26.6887C26.6887 26.5188 25.5577 23.7982 23.5574 21.7979C21.5571 19.7976 18.8365 18.6667 16 18.6667Z" fill="white"/>
</svg> 