<svg width="16" height="20" viewBox="0 0 16 20" fill="none" xmlns="http://www.w3.org/2000/svg">
<path id="Vector" d="M8.91721 7.80688C9.05471 7.39438 9.63721 7.39438 9.77471 7.80688L10.581 10.2281C10.7584 10.7604 11.0574 11.244 11.4543 11.6406C11.8511 12.0372 12.3349 12.336 12.8672 12.5131L15.2872 13.3194C15.6997 13.4569 15.6997 14.0394 15.2872 14.1769L12.866 14.9831C12.3337 15.1606 11.8501 15.4596 11.4535 15.8564C11.0569 16.2533 10.7581 16.737 10.581 17.2694L9.77471 19.6894C9.74506 19.7797 9.68765 19.8584 9.61065 19.9141C9.53366 19.9699 9.44102 19.9999 9.34596 19.9999C9.25089 19.9999 9.15825 19.9699 9.08126 19.9141C9.00426 19.8584 8.94685 19.7797 8.91721 19.6894L8.11096 17.2681C7.93362 16.736 7.63481 16.2525 7.2382 15.8559C6.84159 15.4593 6.35807 15.1605 5.82596 14.9831L3.4047 14.1769C3.31438 14.1472 3.23572 14.0898 3.17996 14.0128C3.12419 13.9358 3.09417 13.8432 3.09417 13.7481C3.09417 13.6531 3.12419 13.5604 3.17996 13.4834C3.23572 13.4064 3.31438 13.349 3.4047 13.3194L5.82596 12.5131C6.35807 12.3358 6.84159 12.037 7.2382 11.6404C7.63481 11.2438 7.93362 10.7602 8.11096 10.2281L8.91721 7.80688ZM4.08845 1.43313C4.10638 1.379 4.14091 1.33189 4.18713 1.2985C4.23336 1.26511 4.28893 1.24714 4.34595 1.24714C4.40298 1.24714 4.45855 1.26511 4.50478 1.2985C4.551 1.33189 4.58553 1.379 4.60345 1.43313L5.0872 2.88563C5.30345 3.53313 5.81096 4.04063 6.45846 4.25688L7.91096 4.74063C7.96509 4.75855 8.01219 4.79308 8.04558 4.83931C8.07897 4.88553 8.09694 4.94111 8.09694 4.99813C8.09694 5.05515 8.07897 5.11072 8.04558 5.15695C8.01219 5.20318 7.96509 5.2377 7.91096 5.25563L6.45846 5.73938C6.13911 5.84577 5.84894 6.02508 5.61092 6.2631C5.37291 6.50111 5.1936 6.79129 5.0872 7.11063L4.60345 8.56313C4.58553 8.61726 4.551 8.66437 4.50478 8.69775C4.45855 8.73114 4.40298 8.74911 4.34595 8.74911C4.28893 8.74911 4.23336 8.73114 4.18713 8.69775C4.14091 8.66437 4.10638 8.61726 4.08845 8.56313L3.60471 7.11063C3.49831 6.79129 3.319 6.50111 3.08099 6.2631C2.84297 6.02508 2.5528 5.84577 2.23345 5.73938L0.780955 5.25563C0.726823 5.2377 0.679716 5.20318 0.646329 5.15695C0.612941 5.11072 0.594971 5.05515 0.594971 4.99813C0.594971 4.94111 0.612941 4.88553 0.646329 4.83931C0.679716 4.79308 0.726823 4.75855 0.780955 4.74063L2.23345 4.25688C2.5528 4.15048 2.84297 3.97117 3.08099 3.73316C3.319 3.49515 3.49831 3.20497 3.60471 2.88563L4.08845 1.43313ZM12.9247 0.121878C12.937 0.0862862 12.9602 0.0554232 12.9909 0.0335803C13.0216 0.0117374 13.0583 0 13.096 0C13.1336 0 13.1704 0.0117374 13.2011 0.0335803C13.2317 0.0554232 13.2549 0.0862862 13.2672 0.121878L13.5897 1.08938C13.7335 1.52188 14.0722 1.86063 14.5047 2.00438L15.4722 2.32688C15.5078 2.33922 15.5387 2.36234 15.5605 2.39303C15.5823 2.42372 15.5941 2.46046 15.5941 2.49813C15.5941 2.5358 15.5823 2.57253 15.5605 2.60322C15.5387 2.63392 15.5078 2.65704 15.4722 2.66938L14.5047 2.99188C14.2916 3.06278 14.0979 3.1824 13.9391 3.34123C13.7802 3.50006 13.6606 3.69374 13.5897 3.90688L13.2672 4.87438C13.2549 4.90997 13.2317 4.94083 13.2011 4.96268C13.1704 4.98452 13.1336 4.99626 13.096 4.99626C13.0583 4.99626 13.0216 4.98452 12.9909 4.96268C12.9602 4.94083 12.937 4.90997 12.9247 4.87438L12.6022 3.90688C12.5313 3.69374 12.4117 3.50006 12.2529 3.34123C12.094 3.1824 11.9003 3.06278 11.6872 2.99188L10.721 2.66938C10.6854 2.65704 10.6545 2.63392 10.6327 2.60322C10.6108 2.57253 10.5991 2.5358 10.5991 2.49813C10.5991 2.46046 10.6108 2.42372 10.6327 2.39303C10.6545 2.36234 10.6854 2.33922 10.721 2.32688L11.6885 2.00438C12.121 1.86063 12.4597 1.52188 12.6035 1.08938L12.9247 0.123128V0.121878Z" fill="url(#paint0_linear_4055_20314)"/>
<defs>
<linearGradient id="paint0_linear_4055_20314" x1="3.00089" y1="2.06896" x2="9.79745" y2="21.7165" gradientUnits="userSpaceOnUse">
<stop stop-color="#004CE6"/>
<stop offset="0.317982" stop-color="#7FA9FC"/>
<stop offset="0.362689" stop-color="#0055FF"/>
<stop offset="0.939165" stop-color="#A5C3FF"/>
</linearGradient>
</defs>
</svg>
