<svg width="129" height="129" viewBox="0 0 129 129" fill="none" xmlns="http://www.w3.org/2000/svg">
<path d="M22.103 11.5259C22.103 9.57861 23.6816 8 25.6289 8H71.4662C90.9392 8 106.725 23.786 106.725 43.259V43.259C106.725 62.7321 90.9392 78.5181 71.4662 78.5181H25.6289C23.6816 78.5181 22.103 76.9395 22.103 74.9922V11.5259Z" fill="#0047CB" fill-opacity="0.15"/>
<path d="M22.103 53.8355C22.103 51.8882 23.6816 50.3096 25.6289 50.3096H71.4662C90.9392 50.3096 106.725 66.0956 106.725 85.5686V85.5686C106.725 105.042 90.9392 120.828 71.4662 120.828H25.6289C23.6816 120.828 22.103 119.249 22.103 117.302V53.8355Z" fill="#0047CB" fill-opacity="0.15"/>
<path fill-rule="evenodd" clip-rule="evenodd" d="M22.1035 50.3086V78.5172H71.4667C83.0024 78.5172 93.2443 72.9773 99.677 64.4129C93.2443 55.8485 83.0024 50.3086 71.4666 50.3086H22.1035Z" fill="#0047CB"/>
</svg>